<?xml version="1.0" encoding="utf-8"?>
<!-- Generator: Adobe Illustrator 24.0.2, SVG Export Plug-In . SVG Version: 6.00 Build 0)  -->
<svg version="1.1" id="ETH" xmlns="http://www.w3.org/2000/svg" xmlns:xlink="http://www.w3.org/1999/xlink" x="0px" y="0px"
	 viewBox="0 0 1259.65 216.44" style="enable-background:new 0 0 1259.65 216.44;" xml:space="preserve">
<style type="text/css">
	.Grün_x0020_bogenförmig{fill:url(#SVGID_1_);stroke:#FFFFFF;stroke-width:0.25;stroke-miterlimit:1;}
</style>
<linearGradient id="SVGID_1_" gradientUnits="userSpaceOnUse" x1="21" y1="941.9009" x2="21.7071" y2="941.1938">
	<stop  offset="0" style="stop-color:#20AC4B"/>
	<stop  offset="0.9831" style="stop-color:#19361A"/>
</linearGradient>
<g>
	<g>
		<path d="M771.89,155.81c-7.21,35.75-34.83,37.57-40.3,37.57c-15.59,0-24.89-9.01-24.89-24.07c0-3.44,0.5-8.12,1.38-12.81
			l17.08-85.1l0.07-0.33h-20.18l-17.41,87.27l-0.23,1.25c-0.75,3.94-1.45,7.68-1.45,12.53c0,23.45,15.4,39.18,38.35,39.18
			c16.79,0,30.27-5.51,40.12-16.38l-2.62,14.38l-0.07,0.34h19.89L809.13,71.4l0.06-0.33h-20.47L771.89,155.81z"/>
		<path d="M909.45,69.39c-15.59,0-29.41,6.38-38.11,17.57l3.12-15.56l0.06-0.33h-19.9l-27.49,138.22l-0.07,0.34h20.2l16.83-84.77
			c4.3-21.76,21.01-37.54,39.74-37.54c8.04,0,14.38,3.17,19.37,9.68l0.19,0.25l16.39-14.68l-0.17-0.21
			C932.05,73.62,922.17,69.39,909.45,69.39z"/>
		<polygon points="575.81,88.65 575.74,88.99 644.6,88.99 552.93,192.63 552.88,192.69 549.42,209.63 647.14,209.63 650.61,191.7 
			577.57,191.7 669.52,88.05 669.56,87.99 673.01,71.07 579.22,71.07 		"/>
		<polygon points="942.35,209.29 942.28,209.63 962.46,209.63 989.99,71.07 970.15,71.07 		"/>
		<path d="M1215.96,69.4c-16.6,0-29.56,5.08-39.52,15.57l15.65-77.15h-20.19l-40.54,201.83h20.18l16.83-84.78
			c7.21-35.74,35.08-37.55,40.58-37.55c15.43,0,24.64,9,24.64,24.07c0,3.42-0.52,8.08-1.41,12.82l-17.12,85.44h20.17l17.7-87.3
			c0.85-4.64,1.42-8.56,1.42-13.77C1254.34,85.14,1238.9,69.4,1215.96,69.4z"/>
		<path d="M1082.17,69.39c-36.61,0-62.3,25.79-70.52,70.75c-1.48,7.53-1.99,15.95-1.99,21.33c0,30.73,18.65,49.82,48.7,49.82
			c17.47,0,33.42-6.7,46.11-19.38l0.18-0.19l-11.64-14.2l-0.21-0.25l-0.22,0.24c-10.71,11.26-20.3,15.87-33.12,15.87
			c-14.32,0-29.64-8.53-29.64-32.47c0-7.49,0.89-13.69,2.22-20.67c2.16-11.75,7.03-28.16,17.84-39.58
			c8.6-8.86,18.79-13.36,30.32-13.36c12.03,0,19.56,4.28,26.89,15.26l0.17,0.27l14.81-12.52l0.21-0.17l-0.16-0.23
			C1112.03,75.72,1099.7,69.39,1082.17,69.39z"/>
		<polygon points="977.63,33.05 997.86,33.05 1002.89,7.82 982.73,7.82 		"/>
		<polygon points="781.41,33.05 801.64,33.05 806.64,7.82 786.52,7.82 		"/>
		<polygon points="727.59,33.05 747.81,33.05 752.83,7.82 732.7,7.82 		"/>
	</g>
	<g>
		<polygon points="457.97,86.02 412.56,86.02 428.51,7.82 42.54,7.82 2,209.64 155.89,209.64 165.97,159.2 75.11,159.2 
			80.62,131.44 171.45,131.44 180.59,86.02 89.74,86.02 95.24,58.27 239.26,58.27 208.85,209.64 271.93,209.64 302.33,58.27 
			355.29,58.27 324.89,209.64 387.97,209.64 403.54,131.44 448.94,131.44 433.37,209.64 496.44,209.64 537,7.82 473.92,7.82 		"/>
	</g>
</g>
</svg>
